<mxfile host="app.diagrams.net" modified="2023-09-05T00:08:43.190Z" agent="Mozilla/5.0 (Windows NT 10.0; Win64; x64) AppleWebKit/537.36 (KHTML, like Gecko) Chrome/116.0.0.0 Safari/537.36 Edg/116.0.1938.69" etag="QsKY6wmoxAG7nFI46l__" version="21.7.2" type="github">
  <diagram name="第 1 页" id="KUekpJdEbnG0SRrivHRT">
    <mxGraphModel dx="1280" dy="510" grid="1" gridSize="10" guides="1" tooltips="1" connect="1" arrows="1" fold="1" page="1" pageScale="1" pageWidth="827" pageHeight="1169" math="0" shadow="0">
      <root>
        <mxCell id="0" />
        <mxCell id="1" parent="0" />
        <mxCell id="A8PIRrbpSC_gx7RTVFYV-3" value="" style="group" parent="1" vertex="1" connectable="0">
          <mxGeometry x="20" y="300" width="90" height="40" as="geometry" />
        </mxCell>
        <mxCell id="A8PIRrbpSC_gx7RTVFYV-1" value="" style="rounded=0;whiteSpace=wrap;html=1;" parent="A8PIRrbpSC_gx7RTVFYV-3" vertex="1">
          <mxGeometry width="90" height="40" as="geometry" />
        </mxCell>
        <mxCell id="A8PIRrbpSC_gx7RTVFYV-2" value="PC" style="text;strokeColor=none;align=center;fillColor=none;html=1;verticalAlign=middle;whiteSpace=wrap;rounded=0;" parent="A8PIRrbpSC_gx7RTVFYV-3" vertex="1">
          <mxGeometry x="20" y="10" width="47.5" height="20" as="geometry" />
        </mxCell>
        <mxCell id="A8PIRrbpSC_gx7RTVFYV-6" value="" style="group" parent="1" vertex="1" connectable="0">
          <mxGeometry x="150" y="290" width="120" height="60" as="geometry" />
        </mxCell>
        <mxCell id="A8PIRrbpSC_gx7RTVFYV-4" value="" style="rounded=0;whiteSpace=wrap;html=1;" parent="A8PIRrbpSC_gx7RTVFYV-6" vertex="1">
          <mxGeometry width="120" height="60" as="geometry" />
        </mxCell>
        <mxCell id="A8PIRrbpSC_gx7RTVFYV-5" value="Instr_mem" style="text;strokeColor=none;align=center;fillColor=none;html=1;verticalAlign=middle;whiteSpace=wrap;rounded=0;" parent="A8PIRrbpSC_gx7RTVFYV-6" vertex="1">
          <mxGeometry x="30" y="15" width="60" height="30" as="geometry" />
        </mxCell>
        <mxCell id="A8PIRrbpSC_gx7RTVFYV-7" value="" style="endArrow=classic;html=1;rounded=0;entryX=0;entryY=0.5;entryDx=0;entryDy=0;" parent="1" target="A8PIRrbpSC_gx7RTVFYV-4" edge="1">
          <mxGeometry width="50" height="50" relative="1" as="geometry">
            <mxPoint x="110" y="320" as="sourcePoint" />
            <mxPoint x="160" y="270" as="targetPoint" />
          </mxGeometry>
        </mxCell>
        <mxCell id="A8PIRrbpSC_gx7RTVFYV-8" value="" style="group" parent="1" vertex="1" connectable="0">
          <mxGeometry x="310" y="300" width="90" height="40" as="geometry" />
        </mxCell>
        <mxCell id="A8PIRrbpSC_gx7RTVFYV-9" value="" style="rounded=0;whiteSpace=wrap;html=1;" parent="A8PIRrbpSC_gx7RTVFYV-8" vertex="1">
          <mxGeometry width="90" height="40" as="geometry" />
        </mxCell>
        <mxCell id="A8PIRrbpSC_gx7RTVFYV-10" value="IR" style="text;strokeColor=none;align=center;fillColor=none;html=1;verticalAlign=middle;whiteSpace=wrap;rounded=0;" parent="A8PIRrbpSC_gx7RTVFYV-8" vertex="1">
          <mxGeometry x="20" y="10" width="47.5" height="20" as="geometry" />
        </mxCell>
        <mxCell id="A8PIRrbpSC_gx7RTVFYV-12" value="" style="endArrow=classic;html=1;rounded=0;entryX=0;entryY=0.5;entryDx=0;entryDy=0;exitX=1;exitY=0.5;exitDx=0;exitDy=0;" parent="1" source="A8PIRrbpSC_gx7RTVFYV-4" target="A8PIRrbpSC_gx7RTVFYV-9" edge="1">
          <mxGeometry width="50" height="50" relative="1" as="geometry">
            <mxPoint x="130" y="340" as="sourcePoint" />
            <mxPoint x="170" y="340" as="targetPoint" />
          </mxGeometry>
        </mxCell>
        <mxCell id="A8PIRrbpSC_gx7RTVFYV-15" value="" style="group" parent="1" vertex="1" connectable="0">
          <mxGeometry x="500" y="290" width="120" height="60" as="geometry" />
        </mxCell>
        <mxCell id="A8PIRrbpSC_gx7RTVFYV-13" value="" style="rounded=0;whiteSpace=wrap;html=1;" parent="A8PIRrbpSC_gx7RTVFYV-15" vertex="1">
          <mxGeometry width="120" height="60" as="geometry" />
        </mxCell>
        <mxCell id="A8PIRrbpSC_gx7RTVFYV-14" value="寄存器组" style="text;strokeColor=none;align=center;fillColor=none;html=1;verticalAlign=middle;whiteSpace=wrap;rounded=0;" parent="A8PIRrbpSC_gx7RTVFYV-15" vertex="1">
          <mxGeometry x="30" y="15" width="60" height="30" as="geometry" />
        </mxCell>
        <mxCell id="A8PIRrbpSC_gx7RTVFYV-16" value="" style="endArrow=classic;html=1;rounded=0;entryX=0;entryY=0.5;entryDx=0;entryDy=0;exitX=1;exitY=0.5;exitDx=0;exitDy=0;" parent="1" source="A8PIRrbpSC_gx7RTVFYV-9" target="A8PIRrbpSC_gx7RTVFYV-13" edge="1">
          <mxGeometry width="50" height="50" relative="1" as="geometry">
            <mxPoint x="280" y="330" as="sourcePoint" />
            <mxPoint x="320" y="330" as="targetPoint" />
          </mxGeometry>
        </mxCell>
        <mxCell id="A8PIRrbpSC_gx7RTVFYV-18" value="" style="group" parent="1" vertex="1" connectable="0">
          <mxGeometry x="515" y="210" width="90" height="40" as="geometry" />
        </mxCell>
        <mxCell id="A8PIRrbpSC_gx7RTVFYV-19" value="" style="rounded=0;whiteSpace=wrap;html=1;" parent="A8PIRrbpSC_gx7RTVFYV-18" vertex="1">
          <mxGeometry width="90" height="40" as="geometry" />
        </mxCell>
        <mxCell id="A8PIRrbpSC_gx7RTVFYV-20" value="Imm" style="text;strokeColor=none;align=center;fillColor=none;html=1;verticalAlign=middle;whiteSpace=wrap;rounded=0;" parent="A8PIRrbpSC_gx7RTVFYV-18" vertex="1">
          <mxGeometry x="20" y="10" width="47.5" height="20" as="geometry" />
        </mxCell>
        <mxCell id="A8PIRrbpSC_gx7RTVFYV-21" value="" style="endArrow=classic;html=1;rounded=0;entryX=0;entryY=0.5;entryDx=0;entryDy=0;" parent="1" target="A8PIRrbpSC_gx7RTVFYV-19" edge="1">
          <mxGeometry width="50" height="50" relative="1" as="geometry">
            <mxPoint x="450" y="340" as="sourcePoint" />
            <mxPoint x="510" y="330" as="targetPoint" />
            <Array as="points">
              <mxPoint x="450" y="230" />
            </Array>
          </mxGeometry>
        </mxCell>
        <mxCell id="A8PIRrbpSC_gx7RTVFYV-48" value="" style="group" parent="1" vertex="1" connectable="0">
          <mxGeometry x="800" y="250" width="65" height="120" as="geometry" />
        </mxCell>
        <mxCell id="RsH4xSaf7WsoLqu21dAQ-17" style="edgeStyle=orthogonalEdgeStyle;rounded=0;orthogonalLoop=1;jettySize=auto;html=1;exitX=0;exitY=0.75;exitDx=0;exitDy=0;" edge="1" parent="A8PIRrbpSC_gx7RTVFYV-48" source="A8PIRrbpSC_gx7RTVFYV-46">
          <mxGeometry relative="1" as="geometry">
            <mxPoint x="16.17391304347848" y="-70" as="targetPoint" />
          </mxGeometry>
        </mxCell>
        <mxCell id="A8PIRrbpSC_gx7RTVFYV-46" value="" style="shape=trapezoid;perimeter=trapezoidPerimeter;whiteSpace=wrap;html=1;fixedSize=1;rotation=90;" parent="A8PIRrbpSC_gx7RTVFYV-48" vertex="1">
          <mxGeometry x="-30" y="30" width="120" height="60" as="geometry" />
        </mxCell>
        <mxCell id="A8PIRrbpSC_gx7RTVFYV-57" style="edgeStyle=orthogonalEdgeStyle;rounded=0;orthogonalLoop=1;jettySize=auto;html=1;" parent="A8PIRrbpSC_gx7RTVFYV-48" source="A8PIRrbpSC_gx7RTVFYV-47" edge="1">
          <mxGeometry relative="1" as="geometry">
            <mxPoint x="90" y="60" as="targetPoint" />
          </mxGeometry>
        </mxCell>
        <mxCell id="A8PIRrbpSC_gx7RTVFYV-47" value="ALU" style="text;strokeColor=none;align=center;fillColor=none;html=1;verticalAlign=middle;whiteSpace=wrap;rounded=0;" parent="A8PIRrbpSC_gx7RTVFYV-48" vertex="1">
          <mxGeometry x="5" y="45" width="60" height="30" as="geometry" />
        </mxCell>
        <mxCell id="A8PIRrbpSC_gx7RTVFYV-56" value="" style="endArrow=classic;html=1;rounded=0;" parent="1" edge="1">
          <mxGeometry width="50" height="50" relative="1" as="geometry">
            <mxPoint x="860" y="310" as="sourcePoint" />
            <mxPoint x="890" y="310" as="targetPoint" />
          </mxGeometry>
        </mxCell>
        <mxCell id="A8PIRrbpSC_gx7RTVFYV-77" value="" style="group" parent="1" vertex="1" connectable="0">
          <mxGeometry x="960" y="280" width="120" height="60" as="geometry" />
        </mxCell>
        <mxCell id="A8PIRrbpSC_gx7RTVFYV-78" value="" style="rounded=0;whiteSpace=wrap;html=1;" parent="A8PIRrbpSC_gx7RTVFYV-77" vertex="1">
          <mxGeometry width="120" height="60" as="geometry" />
        </mxCell>
        <mxCell id="A8PIRrbpSC_gx7RTVFYV-79" value="data_mem" style="text;strokeColor=none;align=center;fillColor=none;html=1;verticalAlign=middle;whiteSpace=wrap;rounded=0;" parent="A8PIRrbpSC_gx7RTVFYV-77" vertex="1">
          <mxGeometry x="30" y="15" width="60" height="30" as="geometry" />
        </mxCell>
        <mxCell id="A8PIRrbpSC_gx7RTVFYV-80" value="" style="endArrow=classic;html=1;rounded=0;entryX=0;entryY=0.5;entryDx=0;entryDy=0;" parent="1" target="A8PIRrbpSC_gx7RTVFYV-78" edge="1">
          <mxGeometry width="50" height="50" relative="1" as="geometry">
            <mxPoint x="910" y="310" as="sourcePoint" />
            <mxPoint x="940" y="280" as="targetPoint" />
          </mxGeometry>
        </mxCell>
        <mxCell id="A8PIRrbpSC_gx7RTVFYV-53" value="" style="group" parent="1" vertex="1" connectable="0">
          <mxGeometry x="870" y="295" width="60" height="30" as="geometry" />
        </mxCell>
        <mxCell id="A8PIRrbpSC_gx7RTVFYV-54" value="" style="whiteSpace=wrap;html=1;aspect=fixed;" parent="A8PIRrbpSC_gx7RTVFYV-53" vertex="1">
          <mxGeometry x="15" width="30" height="30" as="geometry" />
        </mxCell>
        <mxCell id="A8PIRrbpSC_gx7RTVFYV-55" value="F" style="text;strokeColor=none;align=center;fillColor=none;html=1;verticalAlign=middle;whiteSpace=wrap;rounded=0;fontStyle=1" parent="A8PIRrbpSC_gx7RTVFYV-53" vertex="1">
          <mxGeometry width="60" height="30" as="geometry" />
        </mxCell>
        <mxCell id="A8PIRrbpSC_gx7RTVFYV-87" value="" style="endArrow=classic;html=1;rounded=0;entryX=0.5;entryY=1;entryDx=0;entryDy=0;" parent="1" target="A8PIRrbpSC_gx7RTVFYV-13" edge="1">
          <mxGeometry width="50" height="50" relative="1" as="geometry">
            <mxPoint x="560" y="480" as="sourcePoint" />
            <mxPoint x="910" y="610" as="targetPoint" />
          </mxGeometry>
        </mxCell>
        <mxCell id="A8PIRrbpSC_gx7RTVFYV-88" value="" style="endArrow=none;html=1;rounded=0;" parent="1" edge="1">
          <mxGeometry width="50" height="50" relative="1" as="geometry">
            <mxPoint x="560" y="480" as="sourcePoint" />
            <mxPoint x="1020" y="480" as="targetPoint" />
          </mxGeometry>
        </mxCell>
        <mxCell id="A8PIRrbpSC_gx7RTVFYV-90" value="" style="endArrow=none;html=1;rounded=0;entryX=0.5;entryY=1;entryDx=0;entryDy=0;" parent="1" target="A8PIRrbpSC_gx7RTVFYV-55" edge="1">
          <mxGeometry width="50" height="50" relative="1" as="geometry">
            <mxPoint x="900" y="480" as="sourcePoint" />
            <mxPoint x="940" y="280" as="targetPoint" />
          </mxGeometry>
        </mxCell>
        <mxCell id="A8PIRrbpSC_gx7RTVFYV-91" value="" style="endArrow=none;html=1;rounded=0;entryX=0.5;entryY=1;entryDx=0;entryDy=0;" parent="1" target="A8PIRrbpSC_gx7RTVFYV-78" edge="1">
          <mxGeometry width="50" height="50" relative="1" as="geometry">
            <mxPoint x="1020" y="480" as="sourcePoint" />
            <mxPoint x="910" y="335" as="targetPoint" />
          </mxGeometry>
        </mxCell>
        <mxCell id="A8PIRrbpSC_gx7RTVFYV-92" value="" style="endArrow=classic;html=1;rounded=0;" parent="1" edge="1">
          <mxGeometry width="50" height="50" relative="1" as="geometry">
            <mxPoint x="450" y="340" as="sourcePoint" />
            <mxPoint x="500" y="340" as="targetPoint" />
          </mxGeometry>
        </mxCell>
        <mxCell id="A8PIRrbpSC_gx7RTVFYV-93" value="" style="endArrow=classic;html=1;rounded=0;" parent="1" edge="1">
          <mxGeometry width="50" height="50" relative="1" as="geometry">
            <mxPoint x="450" y="300" as="sourcePoint" />
            <mxPoint x="500" y="300" as="targetPoint" />
          </mxGeometry>
        </mxCell>
        <mxCell id="A8PIRrbpSC_gx7RTVFYV-97" value="" style="group" parent="1" vertex="1" connectable="0">
          <mxGeometry x="635" y="290" width="45" height="20" as="geometry" />
        </mxCell>
        <mxCell id="A8PIRrbpSC_gx7RTVFYV-95" value="" style="rounded=0;whiteSpace=wrap;html=1;" parent="A8PIRrbpSC_gx7RTVFYV-97" vertex="1">
          <mxGeometry width="45" height="20" as="geometry" />
        </mxCell>
        <mxCell id="A8PIRrbpSC_gx7RTVFYV-96" value="rdata1" style="text;strokeColor=none;align=center;fillColor=none;html=1;verticalAlign=middle;whiteSpace=wrap;rounded=0;" parent="A8PIRrbpSC_gx7RTVFYV-97" vertex="1">
          <mxGeometry x="11.25" y="5" width="22.5" height="10" as="geometry" />
        </mxCell>
        <mxCell id="A8PIRrbpSC_gx7RTVFYV-100" value="" style="group" parent="1" vertex="1" connectable="0">
          <mxGeometry x="635" y="330" width="45" height="20" as="geometry" />
        </mxCell>
        <mxCell id="RsH4xSaf7WsoLqu21dAQ-55" style="edgeStyle=orthogonalEdgeStyle;rounded=0;orthogonalLoop=1;jettySize=auto;html=1;exitX=1;exitY=0.75;exitDx=0;exitDy=0;" edge="1" parent="A8PIRrbpSC_gx7RTVFYV-100" source="A8PIRrbpSC_gx7RTVFYV-101">
          <mxGeometry relative="1" as="geometry">
            <mxPoint x="65" y="14.782608695652243" as="targetPoint" />
          </mxGeometry>
        </mxCell>
        <mxCell id="A8PIRrbpSC_gx7RTVFYV-101" value="" style="rounded=0;whiteSpace=wrap;html=1;" parent="A8PIRrbpSC_gx7RTVFYV-100" vertex="1">
          <mxGeometry width="45" height="20" as="geometry" />
        </mxCell>
        <mxCell id="A8PIRrbpSC_gx7RTVFYV-102" value="rdata2" style="text;strokeColor=none;align=center;fillColor=none;html=1;verticalAlign=middle;whiteSpace=wrap;rounded=0;" parent="A8PIRrbpSC_gx7RTVFYV-100" vertex="1">
          <mxGeometry x="11.25" y="5" width="22.5" height="10" as="geometry" />
        </mxCell>
        <mxCell id="A8PIRrbpSC_gx7RTVFYV-110" value="" style="endArrow=classic;html=1;rounded=0;entryX=0.317;entryY=0.999;entryDx=0;entryDy=0;entryPerimeter=0;" parent="1" target="A8PIRrbpSC_gx7RTVFYV-78" edge="1">
          <mxGeometry width="50" height="50" relative="1" as="geometry">
            <mxPoint x="998" y="440" as="sourcePoint" />
            <mxPoint x="520" y="300" as="targetPoint" />
          </mxGeometry>
        </mxCell>
        <mxCell id="A8PIRrbpSC_gx7RTVFYV-111" value="" style="endArrow=none;html=1;rounded=0;exitX=0;exitY=0.5;exitDx=0;exitDy=0;" parent="1" edge="1">
          <mxGeometry width="50" height="50" relative="1" as="geometry">
            <mxPoint x="660" y="350" as="sourcePoint" />
            <mxPoint x="660" y="440" as="targetPoint" />
          </mxGeometry>
        </mxCell>
        <mxCell id="A8PIRrbpSC_gx7RTVFYV-112" value="" style="endArrow=none;html=1;rounded=0;" parent="1" edge="1">
          <mxGeometry width="50" height="50" relative="1" as="geometry">
            <mxPoint x="660" y="440" as="sourcePoint" />
            <mxPoint x="1000" y="440" as="targetPoint" />
          </mxGeometry>
        </mxCell>
        <mxCell id="RsH4xSaf7WsoLqu21dAQ-3" value="" style="group" vertex="1" connectable="0" parent="1">
          <mxGeometry x="165" y="140" width="90" height="40" as="geometry" />
        </mxCell>
        <mxCell id="RsH4xSaf7WsoLqu21dAQ-1" value="" style="rounded=0;whiteSpace=wrap;html=1;" vertex="1" parent="RsH4xSaf7WsoLqu21dAQ-3">
          <mxGeometry width="90" height="40" as="geometry" />
        </mxCell>
        <mxCell id="RsH4xSaf7WsoLqu21dAQ-2" value="ADD" style="text;strokeColor=none;align=center;fillColor=none;html=1;verticalAlign=middle;whiteSpace=wrap;rounded=0;" vertex="1" parent="RsH4xSaf7WsoLqu21dAQ-3">
          <mxGeometry x="25" y="10" width="40" height="20" as="geometry" />
        </mxCell>
        <mxCell id="RsH4xSaf7WsoLqu21dAQ-5" style="edgeStyle=orthogonalEdgeStyle;rounded=0;orthogonalLoop=1;jettySize=auto;html=1;exitX=0.5;exitY=0;exitDx=0;exitDy=0;entryX=0;entryY=0.5;entryDx=0;entryDy=0;" edge="1" parent="1" source="A8PIRrbpSC_gx7RTVFYV-1" target="RsH4xSaf7WsoLqu21dAQ-1">
          <mxGeometry relative="1" as="geometry" />
        </mxCell>
        <mxCell id="RsH4xSaf7WsoLqu21dAQ-15" style="edgeStyle=orthogonalEdgeStyle;rounded=0;orthogonalLoop=1;jettySize=auto;html=1;exitX=1;exitY=0.5;exitDx=0;exitDy=0;" edge="1" parent="1" source="RsH4xSaf7WsoLqu21dAQ-8">
          <mxGeometry relative="1" as="geometry">
            <mxPoint x="800" y="159.56521739130437" as="targetPoint" />
          </mxGeometry>
        </mxCell>
        <mxCell id="RsH4xSaf7WsoLqu21dAQ-47" style="edgeStyle=orthogonalEdgeStyle;rounded=0;orthogonalLoop=1;jettySize=auto;html=1;exitX=1;exitY=0.5;exitDx=0;exitDy=0;entryX=0;entryY=0.5;entryDx=0;entryDy=0;" edge="1" parent="1" source="RsH4xSaf7WsoLqu21dAQ-8" target="RsH4xSaf7WsoLqu21dAQ-41">
          <mxGeometry relative="1" as="geometry">
            <Array as="points">
              <mxPoint x="690" y="160" />
              <mxPoint x="690" y="335" />
            </Array>
          </mxGeometry>
        </mxCell>
        <mxCell id="RsH4xSaf7WsoLqu21dAQ-8" value="" style="group;movable=1;resizable=1;rotatable=1;deletable=1;editable=1;locked=0;connectable=1;" vertex="1" connectable="0" parent="1">
          <mxGeometry x="310" y="140" width="90" height="40" as="geometry" />
        </mxCell>
        <mxCell id="RsH4xSaf7WsoLqu21dAQ-6" value="" style="rounded=0;whiteSpace=wrap;html=1;movable=0;resizable=0;rotatable=0;deletable=0;editable=0;locked=1;connectable=0;" vertex="1" parent="RsH4xSaf7WsoLqu21dAQ-8">
          <mxGeometry width="90" height="40" as="geometry" />
        </mxCell>
        <mxCell id="RsH4xSaf7WsoLqu21dAQ-7" value="NPC" style="text;strokeColor=none;align=center;fillColor=none;html=1;verticalAlign=middle;whiteSpace=wrap;rounded=0;" vertex="1" parent="RsH4xSaf7WsoLqu21dAQ-8">
          <mxGeometry x="25" y="10" width="40" height="20" as="geometry" />
        </mxCell>
        <mxCell id="RsH4xSaf7WsoLqu21dAQ-9" style="edgeStyle=orthogonalEdgeStyle;rounded=0;orthogonalLoop=1;jettySize=auto;html=1;exitX=1;exitY=0.5;exitDx=0;exitDy=0;entryX=0;entryY=0.5;entryDx=0;entryDy=0;" edge="1" parent="1" source="RsH4xSaf7WsoLqu21dAQ-1" target="RsH4xSaf7WsoLqu21dAQ-6">
          <mxGeometry relative="1" as="geometry" />
        </mxCell>
        <mxCell id="RsH4xSaf7WsoLqu21dAQ-11" value="" style="group" vertex="1" connectable="0" parent="1">
          <mxGeometry x="800" y="140" width="50" height="40" as="geometry" />
        </mxCell>
        <mxCell id="RsH4xSaf7WsoLqu21dAQ-12" value="" style="rounded=0;whiteSpace=wrap;html=1;" vertex="1" parent="RsH4xSaf7WsoLqu21dAQ-11">
          <mxGeometry width="50" height="40" as="geometry" />
        </mxCell>
        <mxCell id="RsH4xSaf7WsoLqu21dAQ-13" value="Zero" style="text;strokeColor=none;align=center;fillColor=none;html=1;verticalAlign=middle;whiteSpace=wrap;rounded=0;" vertex="1" parent="RsH4xSaf7WsoLqu21dAQ-11">
          <mxGeometry x="13.88888888888889" y="10" width="22.22222222222222" height="20" as="geometry" />
        </mxCell>
        <mxCell id="RsH4xSaf7WsoLqu21dAQ-26" style="edgeStyle=orthogonalEdgeStyle;rounded=0;orthogonalLoop=1;jettySize=auto;html=1;exitX=1;exitY=0.25;exitDx=0;exitDy=0;entryX=0;entryY=0.75;entryDx=0;entryDy=0;" edge="1" parent="1" source="A8PIRrbpSC_gx7RTVFYV-13" target="A8PIRrbpSC_gx7RTVFYV-95">
          <mxGeometry relative="1" as="geometry" />
        </mxCell>
        <mxCell id="RsH4xSaf7WsoLqu21dAQ-28" style="edgeStyle=orthogonalEdgeStyle;rounded=0;orthogonalLoop=1;jettySize=auto;html=1;exitX=1;exitY=0.75;exitDx=0;exitDy=0;entryX=0;entryY=0.25;entryDx=0;entryDy=0;" edge="1" parent="1" source="A8PIRrbpSC_gx7RTVFYV-13" target="A8PIRrbpSC_gx7RTVFYV-101">
          <mxGeometry relative="1" as="geometry" />
        </mxCell>
        <mxCell id="RsH4xSaf7WsoLqu21dAQ-39" value="" style="group" vertex="1" connectable="0" parent="1">
          <mxGeometry x="700" y="280" width="40" height="30" as="geometry" />
        </mxCell>
        <mxCell id="RsH4xSaf7WsoLqu21dAQ-69" style="edgeStyle=orthogonalEdgeStyle;rounded=0;orthogonalLoop=1;jettySize=auto;html=1;exitX=1;exitY=0.5;exitDx=0;exitDy=0;" edge="1" parent="RsH4xSaf7WsoLqu21dAQ-39" source="RsH4xSaf7WsoLqu21dAQ-34">
          <mxGeometry relative="1" as="geometry">
            <mxPoint x="50" y="15.21739130434787" as="targetPoint" />
          </mxGeometry>
        </mxCell>
        <mxCell id="RsH4xSaf7WsoLqu21dAQ-34" value="" style="rounded=0;whiteSpace=wrap;html=1;" vertex="1" parent="RsH4xSaf7WsoLqu21dAQ-39">
          <mxGeometry width="40" height="30" as="geometry" />
        </mxCell>
        <mxCell id="RsH4xSaf7WsoLqu21dAQ-35" value="MUX" style="text;strokeColor=none;align=center;fillColor=none;html=1;verticalAlign=middle;whiteSpace=wrap;rounded=0;" vertex="1" parent="RsH4xSaf7WsoLqu21dAQ-39">
          <mxGeometry x="11.111111111111086" y="7.5" width="17.77777777777778" height="15" as="geometry" />
        </mxCell>
        <mxCell id="RsH4xSaf7WsoLqu21dAQ-40" value="" style="group" vertex="1" connectable="0" parent="1">
          <mxGeometry x="700" y="320" width="40" height="30" as="geometry" />
        </mxCell>
        <mxCell id="RsH4xSaf7WsoLqu21dAQ-41" value="" style="rounded=0;whiteSpace=wrap;html=1;" vertex="1" parent="RsH4xSaf7WsoLqu21dAQ-40">
          <mxGeometry width="40" height="30" as="geometry" />
        </mxCell>
        <mxCell id="RsH4xSaf7WsoLqu21dAQ-42" value="MUX" style="text;strokeColor=none;align=center;fillColor=none;html=1;verticalAlign=middle;whiteSpace=wrap;rounded=0;" vertex="1" parent="RsH4xSaf7WsoLqu21dAQ-40">
          <mxGeometry x="11.111111111111086" y="7.5" width="17.77777777777778" height="15" as="geometry" />
        </mxCell>
        <mxCell id="RsH4xSaf7WsoLqu21dAQ-44" style="edgeStyle=orthogonalEdgeStyle;rounded=0;orthogonalLoop=1;jettySize=auto;html=1;exitX=1;exitY=0.25;exitDx=0;exitDy=0;entryX=0;entryY=0.5;entryDx=0;entryDy=0;" edge="1" parent="1" source="A8PIRrbpSC_gx7RTVFYV-95" target="RsH4xSaf7WsoLqu21dAQ-34">
          <mxGeometry relative="1" as="geometry" />
        </mxCell>
        <mxCell id="RsH4xSaf7WsoLqu21dAQ-48" style="edgeStyle=orthogonalEdgeStyle;rounded=0;orthogonalLoop=1;jettySize=auto;html=1;exitX=1;exitY=0.5;exitDx=0;exitDy=0;entryX=0;entryY=0.25;entryDx=0;entryDy=0;" edge="1" parent="1" source="A8PIRrbpSC_gx7RTVFYV-19" target="RsH4xSaf7WsoLqu21dAQ-34">
          <mxGeometry relative="1" as="geometry">
            <Array as="points">
              <mxPoint x="690" y="230" />
              <mxPoint x="690" y="287" />
            </Array>
          </mxGeometry>
        </mxCell>
        <mxCell id="RsH4xSaf7WsoLqu21dAQ-49" style="edgeStyle=orthogonalEdgeStyle;rounded=0;orthogonalLoop=1;jettySize=auto;html=1;exitX=1;exitY=0.5;exitDx=0;exitDy=0;entryX=0;entryY=0.75;entryDx=0;entryDy=0;" edge="1" parent="1" source="A8PIRrbpSC_gx7RTVFYV-19" target="RsH4xSaf7WsoLqu21dAQ-41">
          <mxGeometry relative="1" as="geometry">
            <Array as="points">
              <mxPoint x="690" y="230" />
              <mxPoint x="690" y="343" />
            </Array>
          </mxGeometry>
        </mxCell>
        <mxCell id="RsH4xSaf7WsoLqu21dAQ-58" value="" style="endArrow=classic;html=1;rounded=0;" edge="1" parent="1">
          <mxGeometry width="50" height="50" relative="1" as="geometry">
            <mxPoint x="740" y="300" as="sourcePoint" />
            <mxPoint x="740" y="300" as="targetPoint" />
          </mxGeometry>
        </mxCell>
        <mxCell id="RsH4xSaf7WsoLqu21dAQ-66" value="" style="group" vertex="1" connectable="0" parent="1">
          <mxGeometry x="750" y="280" width="40" height="30" as="geometry" />
        </mxCell>
        <mxCell id="RsH4xSaf7WsoLqu21dAQ-64" value="" style="rounded=0;whiteSpace=wrap;html=1;" vertex="1" parent="RsH4xSaf7WsoLqu21dAQ-66">
          <mxGeometry width="40" height="30" as="geometry" />
        </mxCell>
        <mxCell id="RsH4xSaf7WsoLqu21dAQ-72" style="edgeStyle=orthogonalEdgeStyle;rounded=0;orthogonalLoop=1;jettySize=auto;html=1;exitX=1;exitY=0.25;exitDx=0;exitDy=0;" edge="1" parent="RsH4xSaf7WsoLqu21dAQ-66" source="RsH4xSaf7WsoLqu21dAQ-65">
          <mxGeometry relative="1" as="geometry">
            <mxPoint x="50" y="10.000000000000114" as="targetPoint" />
          </mxGeometry>
        </mxCell>
        <mxCell id="RsH4xSaf7WsoLqu21dAQ-65" value="A" style="text;strokeColor=none;align=center;fillColor=none;html=1;verticalAlign=middle;whiteSpace=wrap;rounded=0;" vertex="1" parent="RsH4xSaf7WsoLqu21dAQ-66">
          <mxGeometry x="5" y="5" width="30" height="20" as="geometry" />
        </mxCell>
        <mxCell id="RsH4xSaf7WsoLqu21dAQ-68" value="" style="group" vertex="1" connectable="0" parent="1">
          <mxGeometry x="750" y="320" width="40" height="30" as="geometry" />
        </mxCell>
        <mxCell id="RsH4xSaf7WsoLqu21dAQ-63" value="" style="rounded=0;whiteSpace=wrap;html=1;" vertex="1" parent="RsH4xSaf7WsoLqu21dAQ-68">
          <mxGeometry width="40" height="30" as="geometry" />
        </mxCell>
        <mxCell id="RsH4xSaf7WsoLqu21dAQ-67" value="B" style="text;strokeColor=none;align=center;fillColor=none;html=1;verticalAlign=middle;whiteSpace=wrap;rounded=0;" vertex="1" parent="RsH4xSaf7WsoLqu21dAQ-68">
          <mxGeometry x="5" y="5" width="30" height="20" as="geometry" />
        </mxCell>
        <mxCell id="RsH4xSaf7WsoLqu21dAQ-70" style="edgeStyle=orthogonalEdgeStyle;rounded=0;orthogonalLoop=1;jettySize=auto;html=1;exitX=1;exitY=0.5;exitDx=0;exitDy=0;entryX=0;entryY=0.5;entryDx=0;entryDy=0;" edge="1" parent="1" source="RsH4xSaf7WsoLqu21dAQ-41" target="RsH4xSaf7WsoLqu21dAQ-63">
          <mxGeometry relative="1" as="geometry" />
        </mxCell>
        <mxCell id="RsH4xSaf7WsoLqu21dAQ-74" style="edgeStyle=orthogonalEdgeStyle;rounded=0;orthogonalLoop=1;jettySize=auto;html=1;exitX=1;exitY=0.75;exitDx=0;exitDy=0;entryX=0.75;entryY=1;entryDx=0;entryDy=0;" edge="1" parent="1" source="RsH4xSaf7WsoLqu21dAQ-67" target="A8PIRrbpSC_gx7RTVFYV-46">
          <mxGeometry relative="1" as="geometry" />
        </mxCell>
        <mxCell id="RsH4xSaf7WsoLqu21dAQ-93" style="edgeStyle=orthogonalEdgeStyle;rounded=0;orthogonalLoop=1;jettySize=auto;html=1;exitX=0.25;exitY=0;exitDx=0;exitDy=0;entryX=0.25;entryY=1;entryDx=0;entryDy=0;" edge="1" parent="1" source="RsH4xSaf7WsoLqu21dAQ-76" target="RsH4xSaf7WsoLqu21dAQ-88">
          <mxGeometry relative="1" as="geometry" />
        </mxCell>
        <mxCell id="RsH4xSaf7WsoLqu21dAQ-76" value="" style="group;movable=1;resizable=1;rotatable=1;deletable=1;editable=1;locked=0;connectable=1;" vertex="1" connectable="0" parent="1">
          <mxGeometry x="310" y="140" width="90" height="40" as="geometry" />
        </mxCell>
        <mxCell id="RsH4xSaf7WsoLqu21dAQ-77" value="" style="rounded=0;whiteSpace=wrap;html=1;movable=0;resizable=0;rotatable=0;deletable=0;editable=0;locked=1;connectable=0;" vertex="1" parent="RsH4xSaf7WsoLqu21dAQ-76">
          <mxGeometry width="90" height="40" as="geometry" />
        </mxCell>
        <mxCell id="RsH4xSaf7WsoLqu21dAQ-78" value="NPC" style="text;strokeColor=none;align=center;fillColor=none;html=1;verticalAlign=middle;whiteSpace=wrap;rounded=0;" vertex="1" parent="RsH4xSaf7WsoLqu21dAQ-76">
          <mxGeometry x="25" y="10" width="40" height="20" as="geometry" />
        </mxCell>
        <mxCell id="RsH4xSaf7WsoLqu21dAQ-96" style="edgeStyle=orthogonalEdgeStyle;rounded=0;orthogonalLoop=1;jettySize=auto;html=1;exitX=1;exitY=0.5;exitDx=0;exitDy=0;entryX=0;entryY=0.75;entryDx=0;entryDy=0;" edge="1" parent="1" source="RsH4xSaf7WsoLqu21dAQ-82" target="RsH4xSaf7WsoLqu21dAQ-34">
          <mxGeometry relative="1" as="geometry">
            <Array as="points">
              <mxPoint x="690" y="70" />
              <mxPoint x="690" y="303" />
            </Array>
          </mxGeometry>
        </mxCell>
        <mxCell id="RsH4xSaf7WsoLqu21dAQ-82" value="" style="group;movable=1;resizable=1;rotatable=1;deletable=1;editable=1;locked=0;connectable=1;" vertex="1" connectable="0" parent="1">
          <mxGeometry x="515" y="50" width="90" height="40" as="geometry" />
        </mxCell>
        <mxCell id="RsH4xSaf7WsoLqu21dAQ-83" value="" style="rounded=0;whiteSpace=wrap;html=1;movable=1;resizable=1;rotatable=1;deletable=1;editable=1;locked=0;connectable=1;" vertex="1" parent="RsH4xSaf7WsoLqu21dAQ-82">
          <mxGeometry width="90" height="40" as="geometry" />
        </mxCell>
        <mxCell id="RsH4xSaf7WsoLqu21dAQ-84" value="Extend" style="text;strokeColor=none;align=center;fillColor=none;html=1;verticalAlign=middle;whiteSpace=wrap;rounded=0;" vertex="1" parent="RsH4xSaf7WsoLqu21dAQ-82">
          <mxGeometry x="25" y="10" width="40" height="20" as="geometry" />
        </mxCell>
        <mxCell id="RsH4xSaf7WsoLqu21dAQ-86" style="edgeStyle=orthogonalEdgeStyle;rounded=0;orthogonalLoop=1;jettySize=auto;html=1;exitX=0.5;exitY=0;exitDx=0;exitDy=0;entryX=0.5;entryY=1;entryDx=0;entryDy=0;" edge="1" parent="1" source="A8PIRrbpSC_gx7RTVFYV-19" target="RsH4xSaf7WsoLqu21dAQ-83">
          <mxGeometry relative="1" as="geometry" />
        </mxCell>
        <mxCell id="RsH4xSaf7WsoLqu21dAQ-95" style="edgeStyle=orthogonalEdgeStyle;rounded=0;orthogonalLoop=1;jettySize=auto;html=1;exitX=0.5;exitY=0;exitDx=0;exitDy=0;entryX=0;entryY=0.5;entryDx=0;entryDy=0;" edge="1" parent="1" source="RsH4xSaf7WsoLqu21dAQ-88" target="A8PIRrbpSC_gx7RTVFYV-1">
          <mxGeometry relative="1" as="geometry" />
        </mxCell>
        <mxCell id="RsH4xSaf7WsoLqu21dAQ-88" value="" style="group;movable=1;resizable=1;rotatable=1;deletable=1;editable=1;locked=0;connectable=1;" vertex="1" connectable="0" parent="1">
          <mxGeometry x="310" y="50" width="90" height="40" as="geometry" />
        </mxCell>
        <mxCell id="RsH4xSaf7WsoLqu21dAQ-89" value="" style="rounded=0;whiteSpace=wrap;html=1;movable=0;resizable=0;rotatable=0;deletable=0;editable=0;locked=1;connectable=0;" vertex="1" parent="RsH4xSaf7WsoLqu21dAQ-88">
          <mxGeometry width="90" height="40" as="geometry" />
        </mxCell>
        <mxCell id="RsH4xSaf7WsoLqu21dAQ-90" value="MUX" style="text;strokeColor=none;align=center;fillColor=none;html=1;verticalAlign=middle;whiteSpace=wrap;rounded=0;" vertex="1" parent="RsH4xSaf7WsoLqu21dAQ-88">
          <mxGeometry x="25" y="10" width="40" height="20" as="geometry" />
        </mxCell>
        <mxCell id="RsH4xSaf7WsoLqu21dAQ-92" style="edgeStyle=orthogonalEdgeStyle;rounded=0;orthogonalLoop=1;jettySize=auto;html=1;exitX=0.5;exitY=0;exitDx=0;exitDy=0;" edge="1" parent="1" source="RsH4xSaf7WsoLqu21dAQ-12" target="RsH4xSaf7WsoLqu21dAQ-88">
          <mxGeometry relative="1" as="geometry" />
        </mxCell>
        <mxCell id="RsH4xSaf7WsoLqu21dAQ-94" style="edgeStyle=orthogonalEdgeStyle;rounded=0;orthogonalLoop=1;jettySize=auto;html=1;exitX=0;exitY=0.5;exitDx=0;exitDy=0;entryX=0.75;entryY=1;entryDx=0;entryDy=0;" edge="1" parent="1" source="RsH4xSaf7WsoLqu21dAQ-83" target="RsH4xSaf7WsoLqu21dAQ-88">
          <mxGeometry relative="1" as="geometry" />
        </mxCell>
      </root>
    </mxGraphModel>
  </diagram>
</mxfile>
